<?xml version="1.0" encoding="UTF-8"?>
<svg viewBox="0 0 727 605" version="1.1" xmlns="http://www.w3.org/2000/svg" xmlns:xlink="http://www.w3.org/1999/xlink">
    <g id="Page-1" stroke="none" stroke-width="1" fill="none" fill-rule="evenodd">
        <path d="M706.776,174.358 C702.296,170.034 703.696,166.296 698.626,166.296 C697.316,145.333 679.676,174.232 676.996,156.455 C676.786,155.032 684.246,146.101 684.766,145.3 C683.036,147.936 672.436,145.913 670.066,145.95 C665.016,146.035 660.866,141.282 659.486,135.249 C659.406,134.91 654.206,130.727 653.296,129.671 C649.276,124.959 656.466,125.163 646.666,122.703 C644.886,122.711 643.106,122.715 641.326,122.722 C640.856,122.903 640.626,123.865 640.626,125.608 C627.116,127.891 613.996,127.561 601.386,122.722 C583.176,115.733 566.076,110.511 548.176,102.359 C504.096,82.274 459.266,80.826 412.226,73.294 C386.326,69.149 352.877,75.281 324.862,78.815 C294.877,82.592 264.285,98.076 233.906,89.998 C211.514,84.042 188.674,71.765 165.204,67.313 C143.179,63.136 121.598,45.865 99.104,58.836 C93.925,61.822 87.851,67.937 82.805,70.275 C79.546,71.781 74.613,69.251 71.449,73.294 C68.141,77.534 66.7,84.702 63.702,90.822 C61.236,95.861 55.416,94.772 53.826,99.491 C51.125,107.524 53.201,116.7 52.419,124.286 C52.677,121.784 50.81,140.59 51.03,137.634 C50.586,143.624 47.536,146.705 48.033,153.603 C48.848,164.893 62.73,173.24 61.483,186.639 C63.076,186.639 56.019,185.406 57.112,191.511 C58.857,201.265 68.965,205.194 72.356,206.981 C71.719,217.292 69.507,209.96 66.87,213.932 C72.554,233.39 48.142,227.826 45.711,227.324 C44.497,227.074 26.6,227.699 27.18,232.086 C27.659,235.716 32.246,234.639 31.574,241.857 C27.924,241.857 14.945,238.499 12.57,246.116 C13.715,252.591 25.879,254.549 24.061,262.994 C21.121,276.641 5.179,254.643 2.006,270.918 C0.114,280.644 4.462,288.837 7.038,295.748 C8.108,298.625 10.024,302.836 11.158,305.793 C12.524,309.351 16.154,308.31 16.983,312.769 C14.592,328.873 1.844,308.954 0,324.85 C1.597,330.574 12.975,330.104 15.931,331.944 C21.963,335.699 25.629,339.461 31.278,344.001 C37.474,348.974 43.696,357.604 50.233,363.915 C71.59,384.555 92.533,396.387 115.35,404.552 C123.997,407.644 139.211,404.829 146.256,424.902 C150.032,435.666 150.635,452.466 155.154,462.24 C159.191,470.98 163.763,473.65 168.054,477.44 C182.998,490.64 199.107,491.91 214.967,494.2 C231.316,496.56 246.606,503.44 261.831,506.06 C302.768,513.13 338.941,526.66 380.506,526.66 C380.506,541.2 377.466,538.98 382.796,547.01 C385.296,550.76 388.226,549.22 391.386,549.91 C394.756,550.66 395.916,552.27 399.536,549.91 C401.956,548.35 403.976,547.58 406.456,547.01 C409.636,546.27 412.576,543.19 417.066,544.08 C422.086,545.06 425.336,544.34 431.826,544.1 C446.726,543.56 460.456,547.58 476.646,547.01 C486.546,546.66 495.406,538.33 504.746,530.89 C508.646,527.78 511.756,523.24 515.736,520.85 C520.496,517.99 523.056,514.49 526.686,509.99 C542.366,490.53 564.816,509.23 582.196,509.23 C597.666,509.23 612.336,508.86 627.026,503.41 C637.456,499.55 646.986,493.8 657.026,487.46 C660.726,485.12 665.096,482.59 668.506,477.28 C669.376,475.92 672.156,476.64 672.796,472.9 C675.146,459.28 670.946,463.07 668.716,458.33 C668.716,450.492 683.236,435.874 684.576,433.698 C687.796,428.447 694.166,416.089 697.746,406.498 C697.426,397.443 690.046,405.759 687.776,402.719 C683.316,396.743 689.206,392.177 688.596,388.766 C687.776,384.152 685.366,389.427 684.196,385.485 C687.356,375.372 695.016,379.109 696.656,368.766 C696.936,366.992 689.706,364.051 689.686,363.952 C686.346,352.034 691.576,353.932 691.616,349.387 C691.726,337.008 693.776,343.545 688.676,343.556 C686.116,343.56 663.276,351.786 661.916,343.842 C659.166,327.751 669.596,323.772 672.926,321.729 C678.906,318.053 682.116,316.695 687.196,311.941 C691.126,308.257 692.206,303.85 694.996,298.077 C697.896,292.072 704.436,288.96 706.586,281.713 C707.976,277.046 697.656,282.542 696.816,282.542 C696.816,269.139 708.516,263.553 708.436,263.166 C707.326,257.445 707.126,249.441 708.596,240.301 C711.376,223.004 714.296,231.204 719.276,221.513 C725.926,208.573 719.116,207.397 719.476,194.386 C719.616,189.36 725.386,175.051 726.126,175.088 C720.356,174.823 711.956,179.347 706.776,174.358 Z" id="Fill-3" fill="#FFE1DE"></path>
        <path d="M359.999,0.563 C459.696,0.563 548.106,48.875 603.116,123.353 C602.536,123.152 601.966,122.942 601.386,122.722 C588.226,117.67 575.636,113.54 562.906,108.559 C511.796,55.126 439.786,21.844 359.999,21.844 C204.932,21.844 79.225,147.55 79.225,302.618 C79.225,457.69 204.932,583.39 359.999,583.39 C436.576,583.39 505.976,552.73 556.626,503.02 C564.776,505.23 572.986,508.65 580.376,509.16 C525.266,567.94 446.926,604.67 359.999,604.67 C193.179,604.67 57.944,469.44 57.944,302.618 C57.944,135.798 193.179,0.563 359.999,0.563" id="Fill-4" fill="#171717"></path>
        <path d="M228.466,345.4 C237.266,339.8 257.266,313.4 278.066,279 L286.066,265.4 L288.466,270.2 C296.466,287 312.466,293.4 336.466,290.2 C343.666,289.4 354.066,287 358.866,285.4 L365.266,283.8 C366.066,283.8 366.866,283 366.866,282.2 C366.866,280.6 365.266,279 363.666,279.8 L362.066,279 L359.666,279 L359.666,279 C341.266,284.6 321.266,286.2 310.866,282.2 C303.666,279.8 299.666,275 295.666,264.6 C290.866,251.8 285.266,248.6 279.666,255 C278.139563,256.526437 271.516231,267.518536 264.658559,279.640489 L264.162484,280.518626 C263.997034,280.811917 263.831517,281.105747 263.666,281.4 C244.466,314.2 229.266,333.4 222.866,333.4 C218.066,333.4 218.066,319 223.666,282.2 C228.466,249.4 227.666,241.4 218.066,241.4 C213.266,241.4 210.866,243.8 202.866,259 C201.910444,260.911111 200.954889,267.672994 199.999333,274.684549 L199.866,275.664062 C199.266,280.075 198.666,284.5 198.066,287.8 C195.666,303 196.466,321.4 199.666,331.8 C200.466,335 203.666,339.8 206.866,343 C213.266,349.4 220.466,350.2 228.466,345.4 Z M370.066,450.2 C393.266,450.2 438.866,404.6 462.866,357.4 C470.866,341.4 478.866,315 481.266,307.8 C486.066,305.4 517.266,288.6 535.666,284.6 C536.466,284.6 537.266,283.8 537.266,283 C538.066,280.6 536.466,278.2 534.066,279 L535.666,277.4 C522.418,280.16 504.98032,287.49056 494.128055,292.295886 L493.201241,292.707202 C488.8044,294.6628 485.626,296.136 484.466,296.6 C482.866,283 486.066,259.8 471.666,244.6 C460.466,232.6 443.666,230.2 427.666,238.2 C403.666,250.2 374.066,292.6 358.866,336.6 C353.266,351.8 353.266,351.8 354.066,343.8 C354.915383,337.004938 358.0193,325.475354 361.103733,313.759284 L361.748256,311.305905 C364.247619,301.766408 366.628963,292.31358 367.666,285.4 C374.866,242.2 405.266,171 414.866,144.6 C431.666,99.8 430.866,117.4 434.066,99 C435.666,91.8 430.066,70.2 414.866,105.4 C411.666,112.6 416.466,101.4 413.266,108.6 C410.066,117.4 403.666,132.6 400.466,141.4 L388.466,170.2 L388.466,170.2 L376.466,201.4 L376.466,201.4 L364.466,235 L364.466,235 C360.466,246.2 357.266,257.4 354.066,268.6 C350.866,279 347.666,289.4 345.266,300.6 C342.866,311 340.466,321.4 338.866,331.8 C337.266,340.6 336.466,349.4 335.666,358.2 C334.866,366.2 335.666,379 336.466,387 L336.466,391.8 C336.466,392.6 336.466,393.4 337.266,394.2 C338.066,395 338.866,395 339.666,395 L340.624104,394.68 C342.691778,393.986667 344.679333,393.293333 346.066,392.6 C347.666,391.8 349.266,391 350.066,389.4 C350.866,387.8 350.866,386.2 351.666,384.6 L354.066,379.8 L354.066,379.8 L358.866,365.4 L358.866,365.4 C398.066,245.4 482.066,222.2 458.866,305.4 C456.466,314.2 455.666,315 444.466,323 C395.666,356.6 350.066,418.2 356.466,440.6 C358.066,446.2 363.666,450.2 370.066,450.2 Z M369.266,431 C366.866,431 368.466,426.2 374.066,414.2 C381.266,399.8 390.866,386.2 406.866,368.6 C411.01,364.16 417.3444,357.96768 423.802558,351.927593 L424.850585,350.949754 C435.50992,341.02808 446.202,331.8 447.666,331.8 C448.994,331.8 442.0552,345.578 433.711044,358.953682 L433.1055,359.9197 C431.586,362.332 430.026,364.72 428.466,367 C412.466,391.8 394.866,412.6 378.866,425.4 C374.066,428.6 370.066,431 369.266,431 Z" id="vb" fill="#171717" fill-rule="nonzero"></path>
    </g>
</svg>