<svg version="1.2" xmlns="http://www.w3.org/2000/svg" viewBox="0 0 1153 919" width="1153" height="919"><style>.a{fill:#171717}</style><path fill-rule="evenodd" class="a" d="m297 500c-5-5-10-12-11-17-5-17-7-46-3-70l3-20v-1c2-11 3-22 5-25 12-24 16-28 23-28 15 0 17 13 9 65-9 58-9 81-1 81 10 0 34-30 64-82v-2l1-1c11-20 21-37 24-39 8-11 17-5 25 15 6 16 12 24 23 28 14.1 5 37.7 4.5 61.9-1 1.9-6.9 4-13.9 6.1-21 5-17 10-35 17-53l18-53 19-50 19-46 20-52 2-5c24-56 33-22 30-10-5 29-3 1-30 72-15 42-62 155-73 224l-10 41-1 4-11 48c-1 13-1 13 8-12 24-69 70-137 107-156 25-13 52-9 69 10 23 24 18 61 20 83l14-6 1-1c17-8 44-19 65-24l-2 3c3-1 6 2 5 6 0 2-2 3-3 3-29 6-77 33-85 37-4 11-16 53-29 79-37 75-108 147-145 147-10 0-18-6-21-15-10-36 61-134 138-187 17-13 18-14 22-28 36-132-95-95-156 95l-8 23-3 8c-2 2-2 5-3 7-1 3-4 4-6 5-2 2-5 3-9 4h-1l-4-1-1-4v-7c-1-13-3-33-1-46 1-14 2-28 5-42 2-17 6-33 10-50 1.2-6.9 2.6-13.6 4.2-20.1-6.3 1.4-13.2 2.6-19.2 3.1-37 6-62-5-75-31l-3-8-13 22c-32 54-64 96-77 105-13 8-24 6-34-4zm269 131c25-20 52-53 77-92q0.9-1.4 1.8-2.7 0.9-1.4 1.8-2.8 0.8-1.3 1.7-2.7 0.9-1.4 1.7-2.8l1-2c13-21 24-43 22-43-3 0-19 15-36 30l-1 2q-12.1 10.1-23.1 21.4-11 11.3-20.8 23.7-9.9 12.3-18.4 25.6-8.5 13.2-15.7 27.3c-9 19-11 27-7 27z"/></svg>