<svg xmlns="http://www.w3.org/2000/svg" viewBox="0 1 1153 918.19"><g fill="none"><path d="M1122 267c-7-7-5-12-13-12-2-32-30 12-34-15 0-2 12-16 12-17-2 4-19 1-23 1-8 0-15-7-17-16l-10-9c-6-7 5-7-10-10h-9l-1 4c-21 4-42 3-62-4-29-11-56-19-85-31-70-30-141-33-215-44-42-6-95 3-139 8-48 6-96 30-145 17-35-9-71-27-109-34-35-6-69-32-105-13-8 5-18 14-26 18-5 2-13-2-18 4s-7 17-12 27c-4 7-13 6-16 13-4 12-1 26-2 37l-2 20c-1 9-6 14-5 24 2 17 24 30 22 50 2 0-9-2-7 8 2 14 19 20 24 23-1 16-5 5-9 11 9 29-30 21-33 20-2-1-31 0-30 7 1 5 8 4 7 15-6 0-26-5-30 6 2 10 21 13 18 26-4 20-30-13-35 12-3 14 4 27 8 37l7 15c2 6 8 4 9 11-4 24-24-6-27 18 3 9 21 8 25 11 10 5 16 11 25 18 10 8 19 21 30 30 34 31 67 49 103 61 14 5 38 1 49 31 6 16 7 42 14 57 7 13 14 17 21 23 24 20 49 21 74 25 26 3 51 14 75 18 65 10 122 31 188 31 0 22-5 19 4 31 4 5 8 3 13 4 6 1 8 4 13 0l11-4c5-1 10-6 17-5 8 2 13 1 24 0 23-1 45 6 71 5 16-1 30-13 44-25 7-4 12-11 18-15 7-4 12-9 17-16 25-30 61-1 88-1 25 0 48-1 72-9 16-6 31-15 47-24 6-4 13-8 19-16 1-2 5-1 6-6 4-21-3-15-6-22 0-12 23-34 25-38 5-7 15-26 21-41-1-13-12-1-16-5-7-9 2-16 1-21-1-7-5 1-7-5 5-16 18-10 20-26 1-2-11-7-11-7-5-18 3-15 3-22 0-19 4-9-4-9-5 0-41 13-43 1-4-25 12-31 18-34 9-5 14-7 22-14 6-6 8-13 13-21 4-9 15-14 18-25 2-7-14 1-16 1 0-20 19-29 19-29-2-9-2-21 0-35 5-26 9-13 17-28 11-20 0-21 0-41 1-8 10-29 11-29-9-1-22 6-31-1Z" fill="#FFE1DE"></path><path d="M574 1c154 0 292 73 377 186a99 99 0 0 1-3 0l-60-22a438 438 0 0 0-749 296 438 438 0 0 0 740 305c12 3 25 8 37 9a471 471 0 0 1-810-314C106 206 315 1 574 1" fill="#171717"></path><path d="M361 550c13-9 45-51 77-105l13-22 3 8c13 26 38 37 75 31 12-1 28-5 35-7l10-3c2 0 3-1 3-2 0-3-3-5-5-4l-3-1h-3c-29 9-60 11-77 5-11-4-17-12-23-28-8-20-17-26-25-15-3 2-13 19-24 39l-1 1v2c-30 52-54 82-64 82-8 0-8-23 1-81 8-52 6-65-9-65-7 0-11 4-23 28-2 3-3 14-5 25v1l-3 20c-4 24-2 53 3 70 1 5 6 12 11 17 10 10 21 12 34 4Zm221 167c37 0 108-72 145-147 13-26 25-68 29-79 8-4 56-31 85-37 1 0 3-1 3-3 1-4-2-7-5-6l2-3c-21 5-48 16-65 24l-1 1-14 6c-2-22 3-59-20-83-17-19-44-23-69-10-37 19-83 87-107 156-9 25-9 25-8 12l11-48 1-4 10-41c11-69 58-182 73-224 27-71 25-43 30-72 3-12-6-46-30 10l-2 5-20 52-19 46-19 50-18 53c-7 18-12 36-17 53s-10 33-13 51c-4 17-8 33-10 50-3 14-4 28-5 42-2 13 0 33 1 46v7l1 4 4 1h1c4-1 7-2 9-4 2-1 5-2 6-5 1-2 1-5 3-7l3-8 8-23c61-190 192-227 156-95-4 14-5 15-22 28-77 53-148 151-138 187 3 9 11 15 21 15Zm-1-31c-4 0-2-8 7-27a314 314 0 0 1 78-98l1-2c17-15 33-30 36-30 2 0-9 22-22 43l-1 2a356 356 0 0 1-7 11c-25 39-52 72-77 92l-15 9Z" fill="#171717"></path></g></svg>