<?xml version="1.0" encoding="UTF-8"?>
<svg id="Layer_2" data-name="Layer 2" xmlns="http://www.w3.org/2000/svg" viewBox="0 0 212.6 99.21">
  <defs>
    <style>
      .cls-1 {
        fill: #edf0b4;
      }

      .cls-2 {
        fill: #eceeb3;
      }

      .cls-3 {
        fill: #8dc63f;
      }

      .cls-4 {
        fill: #a6ce39;
      }

      .cls-5 {
        fill: #d1d3d4;
      }

      .cls-6 {
        fill: #d3d971;
      }

      .cls-7 {
        fill: #231f20;
      }

      .cls-8 {
        fill: #62bb46;
      }
    </style>
  </defs>
  <g id="Layer_1-2" data-name="Layer 1">
    <g>
      <path class="cls-6" d="m82.1,36.85c-1.19-4.34-3.34-8.23-6.37-11.31.01,0,.03.02.04.03-6.33-6.89-15.97-10.51-25.93-8.77-5.01.88-9.49,3.01-13.16,6.01-14.2.8-22.36,6.66-25.79,14.37,0-.01,0-.02,0-.04-3.69,9.03-3.11,19.12.89,27.26,5.36,11.7,15.69,20.3,28.48,22.03,6.5.88,12.85-.13,18.61-2.61,6.01-1.81,11.52-5.12,15.93-9.97,9.1-10,11.43-24.21,7.27-37.12"/>
      <path class="cls-6" d="m50.36,19.79c9.43-1.65,18.57.71,25.4,5.79-6.33-6.89-15.97-10.51-25.93-8.77-9.96,1.74-17.8,8.42-21.41,17.04,4.71-7.09,12.5-12.42,21.93-14.07Z"/>
      <path class="cls-3" d="m39.25,33.44c2.86-3.39,6.95-5.78,11.73-6.44,4.14-.57,8.14.33,11.53,2.24-5.79-3.55-13.69-5.23-23.84-5.09-4.17,2.51-7.66,5.84-10.23,9.71,1.54-3.67,3.85-6.99,6.76-9.73-4.31,2.32-25.88,15.31-13.49,36.6,0,0-6.64-14.62,8.04-23.98,2.99-1.91,6.27-2.97,9.51-3.31h0Z"/>
      <path class="cls-1" d="m82.1,36.85c-1.19-4.34-3.34-8.23-6.37-11.31-6.83-5.05-15.95-7.41-25.37-5.76-4.29.75-8.23,2.26-11.7,4.35,19.4-.26,30.61,6.07,34.52,19.55,1.15,3.95,1.01,8.26-.07,12.63-.6,9.47-4.84,17.9-12,22.75,3.79-2.12,7.3-4.86,10.37-8.24,8.6-9.45,12.14-22,10.63-33.98Z"/>
      <path class="cls-4" d="m46.09,80.17c.28-.02.56-.04.85-.07.17-.02.34-.04.51-.06.33-.04.66-.08.99-.13.02,0,.03,0,.05,0,2.53-.4,5.04-1.12,7.47-2.22.23-.11.46-.22.68-.34-8.01,2.03-16.22.52-23.25-3.63-.01,0-.03-.02-.04-.03-.48-.28-.95-.58-1.42-.89-.03-.02-.05-.03-.08-.05-.48-.32-.96-.65-1.43-1,0,0,0,0,.01.01-3.6-2.64-6.46-5.83-8.1-9.56-.59-1.33-.61-1.47-.61-1.47-12.17-20.91,8.4-33.8,13.23-36.46.1-.06.19-.11.29-.17.47-.44.96-.88,1.46-1.29-14.2.8-22.36,6.66-25.79,14.37-1.83,10.56.57,21.8,7.81,30.68,2.91,3.56,6.34,6.45,10.1,8.66,4.59,2.36,9.56,3.65,14.55,3.73,0,0,.01,0,.02,0,.16,0,.32,0,.49,0,.27,0,.54,0,.81,0,.25,0,.5-.02.75-.03.22-.01.45-.03.67-.04Z"/>
      <path class="cls-4" d="m51.24,28.92c6.17-.85,12.05,1.07,16.37,4.48-3.95-4.57-10.12-7.31-16.64-6.41s-11.77,5.02-14.33,10.49c3.23-4.46,8.42-7.71,14.6-8.56Z"/>
      <path class="cls-6" d="m82.09,36.75c1.55,12.01-2,24.6-10.62,34.08-3.12,3.43-6.7,6.2-10.55,8.34,7.3-4.85,11.61-13.37,12.2-22.97-2.29,9.45-8.28,17.46-17.18,21.48-8.9,4.02-18.87,3.2-27.47-1.32,2.65,2.07,5.51,3.7,8.47,4.87,1.29.3,2.6.56,3.94.74,5.85.79,11.58.3,16.94-1.23-.02,0-.04.02-.06.03.11-.03.22-.07.32-.1.22-.06.44-.12.66-.19.03-.02.06-.03.09-.05,5.89-1.84,11.32-4.94,15.91-9.07-4.26,5.54-9.73,9.85-15.86,12.48,6.01-1.81,11.52-5.12,15.93-9.97,9.1-10,11.43-24.21,7.27-37.12Z"/>
      <path class="cls-3" d="m40.88,81.97c12.7,1.72,24.86-2.52,33.87-10.61-8.27,10.75-21.08,16.9-34.48,15.09-13.4-1.81-24.11-11.15-29.22-23.71,6.53,10.2,17.13,17.52,29.83,19.23Z"/>
      <path class="cls-8" d="m11.05,62.73c6.18,9.65,16.01,16.71,27.8,18.9-.64-.12-1.28-.26-1.92-.41-2.96-1.16-5.82-2.8-8.47-4.87.11.06.23.11.34.17-3.75-2.21-7.19-5.09-10.1-8.66-7.25-8.89-9.65-20.15-7.81-30.72-3.69,9.03-3.11,19.13.89,27.26-.26-.56-.51-1.11-.74-1.68Z"/>
      <path class="cls-4" d="m38.78,13.05c1.83-5.96,5.86-10.56,10.78-13.05-5.81,1.65-10.71,6.19-12.64,12.48-1.93,6.29-.4,12.79,3.48,17.42-2.68-4.81-3.44-10.89-1.62-16.85Z"/>
      <ellipse class="cls-5" cx="46.9" cy="96.59" rx="23.4" ry="2.62"/>
      <g>
        <path class="cls-7" d="m90.92,40.59v-8.42c0-.27.1-.51.29-.7.19-.19.42-.29.7-.29h3.45c.97,0,1.7.2,2.21.6.51.44.77,1.03.77,1.78,0,.47-.1.88-.3,1.2-.2.31-.48.56-.85.74.47.2.84.48,1.09.85.24.35.36.8.36,1.37,0,.91-.29,1.62-.87,2.13-.6.49-1.45.74-2.54.74h-4.29Zm1.86-5.77h2.21c.47,0,.82-.08,1.04-.25.22-.16.33-.42.33-.77s-.11-.6-.33-.77c-.18-.15-.54-.22-1.07-.22h-2.19v2Zm0,4.07h2.3c.51,0,.9-.1,1.18-.3.25-.18.38-.49.38-.93s-.13-.76-.38-.96c-.24-.18-.64-.27-1.2-.27h-2.27v2.46Z"/>
        <path class="cls-7" d="m104.42,38.35h1.37c-.2.77-.58,1.35-1.15,1.75-.57.42-1.28.63-2.13.63-1.04,0-1.85-.34-2.43-1.01-.58-.66-.87-1.59-.87-2.82s.28-2.08.85-2.73c.58-.67,1.39-1.01,2.43-1.01,1.09,0,1.94.33,2.54.98.58.67.87,1.61.87,2.82v.3c0,.09,0,.16-.03.19h-4.73c.02.57.15.98.41,1.26.24.29.59.44,1.07.44.31,0,.57-.06.79-.19.05-.02.1-.05.15-.1.05-.05.1-.1.15-.15.02-.05.09-.13.21-.22.12-.09.29-.14.51-.14Zm-3.28-2.13h2.79c-.04-.49-.16-.86-.38-1.09-.24-.25-.57-.38-1.01-.38-.4,0-.73.13-.98.38-.26.26-.39.62-.41,1.09Z"/>
        <path class="cls-7" d="m106.55,40.59v-3.53c0-.71.1-1.31.31-1.79.21-.48.5-.87.86-1.16.35-.27.75-.47,1.22-.6.46-.13.94-.19,1.44-.19h.27v1.94h-.63c-.53,0-.92.13-1.18.38-.26.26-.38.66-.38,1.2v3.75h-1.91Z"/>
        <path class="cls-7" d="m112.09,39.93c-.38-.33-.66-.77-.82-1.33-.16-.56-.25-1.13-.25-1.74,0-.49.07-.98.21-1.48.14-.49.35-.9.64-1.23.47-.55,1.08-.87,1.83-.97.75-.1,1.42-.04,2.02.18.69.27,1.2.75,1.53,1.42.31.6.46,1.3.46,2.11,0,.58-.06,1.09-.19,1.5-.13.42-.29.77-.49,1.07-.44.6-.99.98-1.67,1.12-.6.16-1.21.18-1.82.04-.61-.14-1.1-.37-1.46-.7Zm1.31-4.81c-.38.42-.56,1.04-.52,1.87.04.83.19,1.41.46,1.74.11.15.3.27.57.37.27.1.55.11.83.03.28-.08.53-.29.75-.62.22-.33.34-.86.36-1.59,0-.66-.11-1.15-.31-1.48-.21-.33-.45-.54-.72-.63-.27-.09-.55-.1-.82-.01-.27.08-.47.19-.6.31Z"/>
        <path class="cls-7" d="m123.43,38.35h1.37c-.2.77-.58,1.35-1.15,1.75-.57.42-1.28.63-2.13.63-1.04,0-1.85-.34-2.43-1.01-.58-.66-.87-1.59-.87-2.82s.28-2.08.85-2.73c.58-.67,1.39-1.01,2.43-1.01,1.09,0,1.94.33,2.54.98.58.67.87,1.61.87,2.82v.3c0,.09,0,.16-.03.19h-4.73c.02.57.15.98.41,1.26.24.29.59.44,1.07.44.31,0,.57-.06.79-.19.05-.02.1-.05.15-.1.04-.05.1-.1.15-.15.02-.05.09-.13.21-.22.12-.09.29-.14.51-.14Zm-3.28-2.13h2.79c-.04-.49-.16-.86-.38-1.09-.24-.25-.57-.38-1.01-.38-.4,0-.73.13-.98.38-.26.26-.39.62-.41,1.09Z"/>
        <path class="cls-7" d="m127.42,42.34c0,.25-.09.47-.27.66-.18.18-.4.27-.66.27h-.93v-6.81c0-1.28.37-2.15,1.12-2.61.75-.46,1.56-.7,2.43-.7.46,0,.92.09,1.38.26.46.17.83.42,1.11.75.55.71.82,1.62.82,2.73s-.27,2.08-.82,2.79c-.55.69-1.25,1.04-2.11,1.04-.46,0-.86-.08-1.2-.25-.37-.18-.66-.46-.87-.85v2.71Zm3.12-5.36c0-.71-.14-1.26-.41-1.64-.27-.38-.67-.57-1.18-.57s-.87.19-1.15.57c-.26.35-.38.89-.38,1.64,0,.69.14,1.21.41,1.56.27.38.66.57,1.18.57.47,0,.85-.19,1.12-.57.27-.38.41-.9.41-1.56Z"/>
        <path class="cls-7" d="m132.94,38.18h1.86c.02.36.15.64.41.82.27.18.64.27,1.09.27.33,0,.61-.06.85-.19.22-.13.33-.3.33-.52,0-.33-.38-.57-1.15-.74-.33-.05-.57-.11-.74-.16-.97-.24-1.61-.52-1.94-.85-.37-.33-.55-.77-.55-1.31,0-.69.26-1.27.79-1.72.55-.42,1.26-.63,2.13-.63.95,0,1.7.21,2.27.63.53.46.81,1.05.85,1.78h-1.18c-.35,0-.61-.15-.79-.46-.07-.07-.15-.15-.22-.22-.22-.16-.52-.25-.9-.25s-.64.05-.82.16c-.16.11-.25.27-.25.49,0,.29.47.54,1.42.74.11.04.21.06.29.08.08.02.16.03.23.03.93.24,1.58.51,1.94.82.35.33.52.77.52,1.31,0,.8-.29,1.42-.87,1.86-.55.4-1.37.6-2.46.6s-1.81-.21-2.32-.63c-.53-.42-.79-1.03-.79-1.83v-.08Z"/>
        <path class="cls-7" d="m143.83,40.59h-1.94l-2.54-7.27h2.02l1.45,5.11,1.29-4.46c.15-.44.44-.66.87-.66h1.42l-2.57,7.27Z"/>
        <path class="cls-7" d="m151.43,38.35h1.37c-.2.77-.58,1.35-1.15,1.75-.57.42-1.28.63-2.13.63-1.04,0-1.85-.34-2.43-1.01-.58-.66-.87-1.59-.87-2.82s.28-2.08.85-2.73c.58-.67,1.39-1.01,2.43-1.01,1.09,0,1.94.33,2.54.98.58.67.87,1.61.87,2.82v.3c0,.09,0,.16-.03.19h-4.73c.02.57.15.98.41,1.26.24.29.59.44,1.07.44.31,0,.57-.06.79-.19.05-.02.1-.05.15-.1.04-.05.1-.1.15-.15.02-.05.09-.13.21-.22.12-.09.29-.14.51-.14Zm-3.28-2.13h2.79c-.04-.49-.16-.86-.38-1.09-.24-.25-.57-.38-1.01-.38-.4,0-.73.13-.98.38-.26.26-.39.62-.41,1.09Z"/>
        <path class="cls-7" d="m153.56,40.59v-3.53c0-.71.1-1.31.31-1.79.21-.48.5-.87.86-1.16.35-.27.75-.47,1.22-.6.46-.13.94-.19,1.44-.19h.27v1.94h-.63c-.53,0-.92.13-1.18.38-.26.26-.38.66-.38,1.2v3.75h-1.91Z"/>
        <path class="cls-7" d="m163.26,38.35h1.37c-.2.77-.58,1.35-1.15,1.75-.57.42-1.28.63-2.13.63-1.04,0-1.85-.34-2.43-1.01-.58-.66-.87-1.59-.87-2.82s.28-2.08.85-2.73c.58-.67,1.39-1.01,2.43-1.01,1.09,0,1.94.33,2.54.98.58.67.87,1.61.87,2.82v.3c0,.09,0,.16-.03.19h-4.73c.02.57.15.98.41,1.26.24.29.59.44,1.07.44.31,0,.57-.06.79-.19.05-.02.1-.05.15-.1.04-.05.1-.1.15-.15.02-.05.09-.13.2-.22.12-.09.29-.14.51-.14Zm-3.28-2.13h2.79c-.04-.49-.16-.86-.38-1.09-.24-.25-.57-.38-1.01-.38-.4,0-.73.13-.98.38-.26.26-.39.62-.41,1.09Z"/>
        <path class="cls-7" d="m171.73,40.59h-.96c-.27,0-.5-.09-.67-.26-.17-.17-.26-.4-.26-.67v-3.72c0-.44-.13-.76-.4-.96-.26-.2-.56-.3-.89-.3s-.62.1-.88.3c-.26.2-.38.52-.38.96v4.65h-1.91v-4.27c0-1.24.32-2.07.97-2.49.65-.42,1.36-.65,2.15-.68.8,0,1.54.21,2.21.63.67.42,1.01,1.27,1.01,2.54v4.27Z"/>
        <path class="cls-7" d="m172.55,31.18h.98c.25,0,.47.09.66.27.18.18.27.4.27.66v.57h-1.91v-1.5Zm0,2.13h.98c.25,0,.47.09.66.27.18.18.27.4.27.66v6.34h-1.91v-7.27Z"/>
        <path class="cls-7" d="m180.06,40.15v-.46c-.33.51-.77.83-1.33.96-.56.13-1.11.08-1.65-.14-.55-.22-1.02-.62-1.41-1.22-.39-.59-.59-1.37-.59-2.34,0-1.13.26-2.05.78-2.75.52-.7,1.35-1.05,2.5-1.05.87,0,1.69.24,2.43.71.75.47,1.12,1.35,1.12,2.62v3.86c0,1.28-.37,2.15-1.12,2.61-.75.46-1.56.7-2.43.7-1.68,0-2.72-.78-3.12-2.35h2c.15.25.37.45.67.59s.6.17.9.11c.3-.06.57-.24.82-.53.25-.29.39-.73.42-1.31Zm-3.12-3.14c0,1.26.36,1.96,1.09,2.09.73.14,1.27-.03,1.61-.51.16-.2.28-.51.36-.94.07-.43.08-.85.01-1.27-.06-.42-.21-.79-.45-1.12-.24-.33-.58-.49-1.04-.49-.62,0-1.04.23-1.26.68-.22.46-.33.98-.33,1.56Z"/>
        <path class="cls-7" d="m182.76,31.18h.98c.25,0,.47.09.66.27.18.18.27.4.27.66v.57h-1.91v-1.5Zm0,2.13h.98c.25,0,.47.09.66.27.18.18.27.4.27.66v6.34h-1.91v-7.27Z"/>
        <path class="cls-7" d="m191.8,40.59h-.96c-.27,0-.5-.09-.67-.26-.17-.17-.26-.4-.26-.67v-3.72c0-.44-.13-.76-.4-.96-.26-.2-.56-.3-.89-.3s-.62.1-.87.3c-.26.2-.38.52-.38.96v4.65h-1.91v-4.27c0-1.24.32-2.07.97-2.49.65-.42,1.36-.65,2.15-.68.8,0,1.54.21,2.21.63.67.42,1.01,1.27,1.01,2.54v4.27Z"/>
        <path class="cls-7" d="m197.26,40.15v-.46c-.33.51-.77.83-1.33.96-.56.13-1.11.08-1.65-.14-.55-.22-1.02-.62-1.41-1.22-.39-.59-.59-1.37-.59-2.34,0-1.13.26-2.05.78-2.75.52-.7,1.35-1.05,2.5-1.05.87,0,1.69.24,2.43.71.75.47,1.12,1.35,1.12,2.62v3.86c0,1.28-.37,2.15-1.12,2.61-.75.46-1.56.7-2.43.7-1.68,0-2.72-.78-3.12-2.35h2c.15.25.37.45.67.59s.6.17.9.11c.3-.06.57-.24.82-.53.25-.29.39-.73.42-1.31Zm-3.12-3.14c0,1.26.36,1.96,1.09,2.09.73.14,1.27-.03,1.61-.51.16-.2.28-.51.36-.94.07-.43.08-.85.01-1.27-.06-.42-.21-.79-.45-1.12-.24-.33-.58-.49-1.04-.49-.62,0-1.04.23-1.26.68-.22.46-.33.98-.33,1.56Z"/>
      </g>
      <g>
        <path class="cls-3" d="m90.92,75.34v-10.83c0-.35.12-.65.37-.9s.54-.38.9-.4h1.34l4.92,8.33v-8.33h2.46v12.13h-2.57l-4.96-8.33v8.33h-2.46Z"/>
        <path class="cls-3" d="m108.26,72.46h1.76c-.26.98-.75,1.73-1.48,2.25-.73.54-1.64.81-2.74.81-1.34,0-2.38-.43-3.13-1.3-.75-.84-1.12-2.05-1.12-3.62s.36-2.67,1.09-3.52c.75-.87,1.79-1.3,3.13-1.3,1.41,0,2.5.42,3.27,1.27.75.87,1.12,2.07,1.12,3.62v.39c0,.12-.01.2-.04.25h-6.08c.02.73.2,1.27.53,1.62.3.38.76.56,1.37.56.4,0,.74-.08,1.02-.25.07-.02.13-.06.19-.12.06-.06.12-.12.19-.19.02-.07.11-.16.26-.28.15-.12.37-.18.65-.18Zm-4.22-2.74h3.59c-.05-.63-.21-1.1-.49-1.41-.3-.33-.74-.49-1.3-.49-.52,0-.94.16-1.27.49-.33.33-.5.8-.53,1.41Z"/>
        <path class="cls-3" d="m117.09,63.21h1.2c.33,0,.61.12.84.37s.35.52.35.83v6.86c0,1.66-.48,2.79-1.44,3.38-.96.59-2,.88-3.13.88-.61,0-1.21-.1-1.79-.3-.59-.2-1.05-.52-1.41-.97-.68-.87-1.02-2.05-1.02-3.55s.34-2.66,1.02-3.55c.7-.91,1.61-1.37,2.71-1.37.59,0,1.1.12,1.55.35.47.28.84.64,1.12,1.09v-4.01Zm-4.01,7.38c0,.94.18,1.65.53,2.14.35.49.86.74,1.51.74s1.12-.25,1.48-.74c.33-.49.49-1.21.49-2.14,0-.84-.18-1.51-.53-2-.37-.47-.88-.7-1.51-.7s-1.09.25-1.44.74c-.35.47-.53,1.12-.53,1.97Z"/>
        <path class="cls-3" d="m126.76,72.46h1.76c-.26.98-.75,1.73-1.48,2.25-.73.54-1.64.81-2.74.81-1.34,0-2.38-.43-3.13-1.3-.75-.84-1.12-2.05-1.12-3.62s.36-2.67,1.09-3.52c.75-.87,1.79-1.3,3.13-1.3,1.41,0,2.5.42,3.27,1.27.75.87,1.12,2.07,1.12,3.62v.39c0,.12-.01.2-.04.25h-6.08c.02.73.2,1.27.53,1.62.3.38.76.56,1.37.56.4,0,.74-.08,1.02-.25.07-.02.13-.06.19-.12s.12-.12.19-.19c.02-.07.11-.16.26-.28.15-.12.37-.18.65-.18Zm-4.22-2.74h3.59c-.05-.63-.21-1.1-.49-1.41-.3-.33-.74-.49-1.3-.49-.52,0-.94.16-1.27.49-.33.33-.5.8-.53,1.41Z"/>
        <path class="cls-3" d="m129.41,75.34v-4.54c0-.91.13-1.68.4-2.3s.64-1.12,1.11-1.49c.45-.35.97-.61,1.56-.77.6-.16,1.21-.25,1.85-.25h.35v2.5h-.81c-.68,0-1.18.16-1.51.49-.33.33-.49.84-.49,1.55v4.82h-2.46Z"/>
        <path class="cls-3" d="m135.4,63.25h1.27c.33,0,.61.11.84.33.23.22.35.5.35.83v10.93h-2.46v-12.09Z"/>
        <path class="cls-3" d="m144.61,74.95c-.49.26-1.01.42-1.56.47-.55.06-1.04.09-1.46.09-.84,0-1.58-.23-2.21-.69-.63-.46-.95-1.21-.95-2.27,0-.98.29-1.69.86-2.11.57-.42,1.31-.7,2.2-.84.12,0,.26-.02.42-.05s.35-.06.56-.09c1.03-.14,1.55-.45,1.55-.91,0-.35-.18-.58-.54-.69-.36-.11-.7-.16-1-.16-.33,0-.62.05-.88.14-.26.09-.45.27-.56.53h-2.36c.09-.73.42-1.32.98-1.79.63-.54,1.54-.81,2.71-.81,1.31,0,2.3.22,2.95.67.68.47,1.02,1.12,1.02,1.97v3.2c0,.94-.17,1.67-.51,2.2-.34.53-.74.91-1.21,1.14Zm-.56-4.32c-.33.16-.79.32-1.37.46l-.81.18c-.42.12-.73.27-.91.46-.16.26-.25.52-.25.77,0,.35.11.63.32.84.21.19.52.28.91.28.66,0,1.17-.19,1.55-.56s.56-.89.56-1.55v-.88Z"/>
        <path class="cls-3" d="m155.21,75.34h-1.23c-.35,0-.64-.11-.86-.33s-.33-.51-.33-.86v-4.78c0-.56-.17-.97-.51-1.23-.34-.26-.72-.39-1.14-.39s-.8.13-1.12.39c-.33.26-.49.67-.49,1.23v5.98h-2.46v-5.48c0-1.59.42-2.66,1.25-3.2.83-.54,1.75-.83,2.76-.88,1.03,0,1.98.27,2.85.81.87.54,1.3,1.63,1.3,3.27v5.48Z"/>
        <path class="cls-3" d="m162.14,63.21h1.2c.33,0,.61.12.84.37.23.25.35.52.35.83v6.86c0,1.66-.48,2.79-1.44,3.38-.96.59-2,.88-3.13.88-.61,0-1.21-.1-1.79-.3-.59-.2-1.05-.52-1.41-.97-.68-.87-1.02-2.05-1.02-3.55s.34-2.66,1.02-3.55c.7-.91,1.61-1.37,2.71-1.37.59,0,1.1.12,1.55.35.47.28.84.64,1.12,1.09v-4.01Zm-4.01,7.38c0,.94.18,1.65.53,2.14.35.49.86.74,1.51.74s1.12-.25,1.48-.74c.33-.49.49-1.21.49-2.14,0-.84-.18-1.51-.53-2-.37-.47-.88-.7-1.51-.7s-1.09.25-1.44.74c-.35.47-.53,1.12-.53,1.97Z"/>
      </g>
      <path class="cls-2" d="m75.27,25.06c.16.15.3.33.46.48.01,0,.03.02.04.03-.16-.18-.33-.34-.5-.51Z"/>
      <path class="cls-7" d="m7.58,29.38c5.54-9.93,16.13-15.87,28.41-17.25-14.24-.76-26.9,4.47-32.75,14.95C-2.63,37.57-.24,50.75,8.16,61.98c-5.49-10.78-6.13-22.66-.58-32.6Z"/>
      <path class="cls-7" d="m25.23,30c6.12-5.56,9.82-12.06,10.74-17.85.38,5.98-2.9,13.15-9.35,19.02-6.46,5.87-14.51,9-21.33,8.89,6.57-1.02,13.84-4.5,19.95-10.06Z"/>
      <g>
        <path class="cls-7" d="m34.55,57.24c-.52.75-1.13,1.29-1.85,1.63-.75.31-1.56.47-2.45.47-2.12,0-3.8-.7-5.03-2.11-1.26-1.38-1.89-3.27-1.89-5.67s.62-4.26,1.85-5.63c1.29-1.43,2.99-2.15,5.12-2.15,1.83,0,3.35.44,4.56,1.33,1.18.95,1.88,2.18,2.11,3.7h-2.06c-.6,0-1.05-.27-1.33-.82-.2-.34-.49-.66-.86-.95-.57-.4-1.33-.6-2.28-.6-1.23,0-2.21.44-2.92,1.33-.72.95-1.07,2.21-1.07,3.78s.37,2.87,1.12,3.78c.72.89,1.73,1.33,3.05,1.33.97,0,1.78-.27,2.41-.82.63-.57,1.03-1.36,1.2-2.36h-1.81c-.43,0-.8-.15-1.1-.45s-.45-.67-.45-1.1v-.99h6.15v8.04h-.82c-.8,0-1.3-.4-1.5-1.2l-.13-.56Z"/>
        <path class="cls-7" d="m45.82,55.48h2.15c-.32,1.2-.92,2.12-1.81,2.75-.89.66-2.01.99-3.35.99-1.63,0-2.91-.53-3.83-1.59-.92-1.03-1.38-2.51-1.38-4.43s.44-3.27,1.33-4.3c.92-1.06,2.19-1.59,3.83-1.59,1.72,0,3.05.52,4,1.55.92,1.06,1.38,2.54,1.38,4.43v.47c0,.14-.01.24-.04.3h-7.44c.03.89.24,1.55.64,1.98.37.46.93.69,1.68.69.49,0,.9-.1,1.25-.3.09-.03.16-.08.24-.15.07-.07.15-.15.24-.24.03-.09.14-.2.32-.34.19-.14.45-.21.8-.21Zm-5.16-3.35h4.38c-.06-.77-.26-1.35-.6-1.72-.37-.4-.9-.6-1.59-.6-.63,0-1.15.2-1.55.6-.4.4-.62.97-.64,1.72Z"/>
        <path class="cls-7" d="m60.41,59h-3.01l-1.76-8.17-1.76,8.17h-3.01l-3.14-11.44h2.92l1.81,7.91,1.63-7.91h3.05l1.55,7.91,1.59-6.88c.17-.69.63-1.03,1.38-1.03h1.89l-3.14,11.44Z"/>
        <path class="cls-7" d="m64.36,44.22h1.55c.4,0,.75.14,1.03.43.29.29.43.63.43,1.03v.9h-3.01v-2.36Zm0,3.35h1.55c.4,0,.75.14,1.03.43.29.29.43.63.43,1.03v9.97h-3.01v-11.44Z"/>
        <path class="cls-7" d="m76.33,55.48h2.15c-.32,1.2-.92,2.12-1.81,2.75-.89.66-2.01.99-3.35.99-1.63,0-2.91-.53-3.83-1.59-.92-1.03-1.38-2.51-1.38-4.43s.44-3.27,1.33-4.3c.92-1.06,2.19-1.59,3.83-1.59,1.72,0,3.05.52,4,1.55.52.63.89,1.36,1.12,2.19h-3.01c-.14-.29-.29-.5-.43-.64-.37-.4-.9-.6-1.59-.6-.63,0-1.15.2-1.55.6-.52.57-.77,1.52-.77,2.84s.26,2.25.77,2.79c.37.46.93.69,1.68.69.49,0,.9-.1,1.25-.3.09-.03.17-.08.24-.15.07-.07.15-.15.24-.24.06-.09.17-.2.34-.34.17-.14.43-.21.77-.21Z"/>
        <path class="cls-7" d="m86.35,50.79c-.43-.6-1.02-.9-1.76-.9-.8,0-1.42.29-1.85.86s-.64,1.36-.64,2.36v5.89h-2.92v-14.79h1.46c.4,0,.74.14,1.03.43.29.29.43.63.43,1.03v3.4c.52-.86,1.25-1.4,2.19-1.63.95-.23,1.85-.17,2.71.17.8.34,1.48.89,2.02,1.63.54.75.82,1.78.82,3.1v6.66h-2.88v-5.93c0-.43-.04-.82-.11-1.18-.07-.36-.24-.72-.49-1.1Z"/>
        <path class="cls-7" d="m95.64,59c-.95.06-1.97.04-3.07-.04-1.1-.09-1.66-.79-1.66-2.11v-12.64h1.55c.37,0,.7.14.99.43.29.29.43.63.43,1.03v1.93h1.76v.6c0,.43-.14.78-.43,1.05-.29.27-.63.41-1.03.41h-.3v6.36c0,.49.29.73.86.73h.9v2.24Z"/>
        <path class="cls-7" d="m95.86,55.22h2.92c.03.57.24,1,.64,1.29.43.29,1,.43,1.72.43.52,0,.96-.1,1.33-.3.34-.2.52-.47.52-.82,0-.52-.6-.9-1.81-1.16-.52-.09-.9-.17-1.16-.26-1.52-.37-2.54-.82-3.05-1.33-.57-.52-.86-1.2-.86-2.06,0-1.09.42-1.99,1.25-2.71.86-.66,1.98-.99,3.35-.99,1.49,0,2.68.33,3.57.99.83.72,1.28,1.65,1.33,2.79h-1.85c-.54,0-.96-.24-1.25-.73l-.34-.34c-.34-.26-.82-.39-1.42-.39s-1,.09-1.29.26c-.26.17-.39.43-.39.77,0,.46.75.85,2.24,1.16.17.06.32.1.45.13.13.03.25.04.37.04,1.46.37,2.48.8,3.05,1.29.54.52.82,1.2.82,2.06,0,1.26-.46,2.24-1.38,2.92-.86.63-2.15.95-3.87.95s-2.85-.33-3.65-.99c-.83-.66-1.25-1.62-1.25-2.88v-.13Z"/>
        <path class="cls-7" d="m114.66,55.48h2.15c-.32,1.2-.92,2.12-1.81,2.75-.89.66-2.01.99-3.35.99-1.63,0-2.91-.53-3.83-1.59-.92-1.03-1.38-2.51-1.38-4.43s.44-3.27,1.33-4.3c.92-1.06,2.19-1.59,3.83-1.59,1.72,0,3.05.52,4,1.55.52.63.89,1.36,1.12,2.19h-3.01c-.14-.29-.29-.5-.43-.64-.37-.4-.9-.6-1.59-.6-.63,0-1.15.2-1.55.6-.52.57-.77,1.52-.77,2.84s.26,2.25.77,2.79c.37.46.93.69,1.68.69.49,0,.9-.1,1.25-.3.09-.03.17-.08.24-.15s.15-.15.24-.24c.06-.09.17-.2.34-.34.17-.14.43-.21.77-.21Z"/>
        <path class="cls-7" d="m118.92,57.97c-.6-.52-1.03-1.21-1.29-2.08-.26-.87-.39-1.78-.39-2.73,0-.77.11-1.55.32-2.32.21-.77.55-1.42,1.01-1.93.74-.86,1.7-1.37,2.88-1.53,1.17-.16,2.24-.06,3.18.28,1.09.43,1.89,1.18,2.41,2.24.49.95.73,2.05.73,3.31,0,.92-.1,1.7-.3,2.36-.2.66-.46,1.22-.77,1.68-.69.95-1.56,1.53-2.62,1.76-.95.26-1.9.28-2.86.06-.96-.22-1.73-.58-2.3-1.1Zm2.06-7.57c-.6.66-.87,1.64-.82,2.94.06,1.3.3,2.21.73,2.73.17.23.47.42.9.58s.87.17,1.31.04c.44-.13.84-.45,1.18-.97s.53-1.35.56-2.49c0-1.03-.17-1.81-.49-2.32-.33-.52-.71-.85-1.14-.99-.43-.14-.86-.15-1.29-.02-.43.13-.75.29-.95.49Z"/>
        <path class="cls-7" d="m138.44,59h-1.5c-.43,0-.78-.14-1.05-.41-.27-.27-.41-.62-.41-1.05v-5.85c0-.69-.21-1.19-.62-1.5-.42-.32-.88-.47-1.4-.47s-.98.16-1.38.47c-.4.32-.6.82-.6,1.5v7.31h-3.01v-6.71c0-1.95.51-3.25,1.53-3.91,1.02-.66,2.14-1.02,3.37-1.07,1.26,0,2.42.33,3.48.99,1.06.66,1.59,1.99,1.59,4v6.71Z"/>
        <path class="cls-7" d="m138.87,55.22h2.92c.03.57.24,1,.64,1.29.43.29,1,.43,1.72.43.52,0,.96-.1,1.33-.3.34-.2.52-.47.52-.82,0-.52-.6-.9-1.81-1.16-.52-.09-.9-.17-1.16-.26-1.52-.37-2.54-.82-3.05-1.33-.57-.52-.86-1.2-.86-2.06,0-1.09.42-1.99,1.25-2.71.86-.66,1.98-.99,3.35-.99,1.49,0,2.68.33,3.57.99.83.72,1.27,1.65,1.33,2.79h-1.85c-.54,0-.96-.24-1.25-.73l-.34-.34c-.34-.26-.82-.39-1.42-.39s-1,.09-1.29.26c-.26.17-.39.43-.39.77,0,.46.75.85,2.24,1.16.17.06.32.1.45.13.13.03.25.04.37.04,1.46.37,2.48.8,3.05,1.29.54.52.82,1.2.82,2.06,0,1.26-.46,2.24-1.38,2.92-.86.63-2.15.95-3.87.95s-2.85-.33-3.65-.99c-.83-.66-1.25-1.62-1.25-2.88v-.13Z"/>
        <path class="cls-7" d="m159.69,47.57v6.71c0,2.04-.53,3.37-1.59,4s-2.22.95-3.48.95c-1.23-.06-2.36-.4-3.37-1.03-1.02-.63-1.53-1.93-1.53-3.91v-6.71h3.01v7.31c0,.69.2,1.19.6,1.5.4.32.86.47,1.38.47s.98-.16,1.4-.47c.42-.32.62-.82.62-1.5v-5.85c0-.4.14-.75.41-1.03.27-.29.62-.43,1.05-.43h1.5Z"/>
        <path class="cls-7" d="m160.51,44.22h1.55c.4,0,.74.14,1.03.41.29.27.43.61.43,1.01v13.37h-3.01v-14.79Z"/>
        <path class="cls-7" d="m172.43,55.48h2.15c-.32,1.2-.92,2.12-1.81,2.75-.89.66-2.01.99-3.35.99-1.63,0-2.91-.53-3.83-1.59-.92-1.03-1.38-2.51-1.38-4.43s.44-3.27,1.33-4.3c.92-1.06,2.19-1.59,3.83-1.59,1.72,0,3.05.52,4,1.55.92,1.06,1.38,2.54,1.38,4.43v.47c0,.14-.01.24-.04.3h-7.44c.03.89.24,1.55.64,1.98.37.46.93.69,1.68.69.49,0,.9-.1,1.25-.3.09-.03.17-.08.24-.15.07-.07.15-.15.24-.24.03-.09.14-.2.32-.34s.45-.21.8-.21Zm-5.16-3.35h4.38c-.06-.77-.26-1.35-.6-1.72-.37-.4-.9-.6-1.59-.6-.63,0-1.15.2-1.55.6-.4.4-.62.97-.64,1.72Z"/>
        <path class="cls-7" d="m185.41,59h-1.5c-.43,0-.78-.14-1.05-.41-.27-.27-.41-.62-.41-1.05v-5.85c0-.69-.21-1.19-.62-1.5-.42-.32-.88-.47-1.4-.47s-.98.16-1.38.47c-.4.32-.6.82-.6,1.5v7.31h-3.01v-6.71c0-1.95.51-3.25,1.53-3.91,1.02-.66,2.14-1.02,3.37-1.07,1.26,0,2.42.33,3.48.99,1.06.66,1.59,1.99,1.59,4v6.71Z"/>
        <path class="cls-7" d="m191.18,59c-.95.06-1.97.04-3.07-.04-1.1-.09-1.66-.79-1.66-2.11v-12.64h1.55c.37,0,.7.14.99.43.29.29.43.63.43,1.03v1.93h1.76v.6c0,.43-.14.78-.43,1.05-.29.27-.63.41-1.03.41h-.3v6.36c0,.49.29.73.86.73h.9v2.24Z"/>
        <path class="cls-7" d="m199.61,55.48h2.15c-.32,1.2-.92,2.12-1.81,2.75-.89.66-2.01.99-3.35.99-1.63,0-2.91-.53-3.83-1.59-.92-1.03-1.38-2.51-1.38-4.43s.44-3.27,1.33-4.3c.92-1.06,2.19-1.59,3.83-1.59,1.72,0,3.05.52,4,1.55.92,1.06,1.38,2.54,1.38,4.43v.47c0,.14-.01.24-.04.3h-7.44c.03.89.24,1.55.64,1.98.37.46.93.69,1.68.69.49,0,.9-.1,1.25-.3.09-.03.17-.08.24-.15.07-.07.15-.15.24-.24.03-.09.14-.2.32-.34s.45-.21.8-.21Zm-5.16-3.35h4.38c-.06-.77-.26-1.35-.6-1.72-.37-.4-.9-.6-1.59-.6-.63,0-1.15.2-1.55.6s-.62.97-.64,1.72Z"/>
        <path class="cls-7" d="m212.6,59h-1.5c-.43,0-.78-.14-1.05-.41-.27-.27-.41-.62-.41-1.05v-5.85c0-.69-.21-1.19-.62-1.5-.42-.32-.88-.47-1.4-.47s-.97.16-1.38.47c-.4.32-.6.82-.6,1.5v7.31h-3.01v-6.71c0-1.95.51-3.25,1.53-3.91,1.02-.66,2.14-1.02,3.37-1.07,1.26,0,2.42.33,3.48.99s1.59,1.99,1.59,4v6.71Z"/>
      </g>
    </g>
  </g>
</svg>